<svg xmlns="http://www.w3.org/2000/svg" viewBox="0 0 531.24 530.3"><defs><style>.cls-1{fill:#e94546;}.cls-2{font-size:19px;fill:#313130;}.cls-2,.cls-5{font-family:HelveticaNeue-CondensedBold, Helvetica Neue;font-weight:700;}.cls-3,.cls-5{opacity:0.1;}.cls-4,.cls-5{fill:#060a10;}.cls-5{font-size:17.02px;}</style></defs><g id="Layer_2" data-name="Layer 2"><g id="Layer_1-2" data-name="Layer 1"><g id="_8ZU48m.tif" data-name="8ZU48m.tif"><path class="cls-1" d="M369,268.17l159,29.44c-7.58,101.61-95.92,219.21-239.73,231.69-140,12.15-262-87.83-282.81-219.37,43.21-5.6,85.63-12.81,128.11-18.31-34.07-2.12-89.48,1.15-124.25-.79,0-.46,19.69-5.89,19.69-6.35L66.78,272c-16.42,0-48.56,4-66.78,4,1.3-17.51,1.18-33,3.87-48,3.43-19,9.18-37.64,13.81-56.45,1.53-6.21,5.12-9.28,11.52-10.73,19.93-4.52,39.72-9.68,59.56-14.63a16,16,0,0,0,8-4.18l-64.53-3.81C83.16,54.86,154.12,5.47,250.39.44,318.64-3.12,376.56,14.9,425,52.52q3.86,3,7.63,6.14,3.93,3.27,7.76,6.74,9,8.09,17.47,17.13,2.17,2.31,4.31,4.68,6.24,6.9,12.2,14.32,10.67,13.23,20.52,28.1c-1.63.19-3.26.37-4.88.53-17,1.67-33.46,1.54-49.62,1.45-12.68-.08-25.19-.14-37.65.71,12.55,1.11,25.1,3.83,37.65,5.46,2.24.29,4.47.55,6.71.76l6.28.59c13.26,1.26,26.72,2.61,41.7,4.08-16.82,4.74-31.66,10.61-46.73,14.86h60.51c14,33.5,22.09,67.25,22.38,103.92C476.68,263.63,422.79,266.55,369,268.17Z"/></g><text class="cls-2" transform="translate(52 208.63)">- Mistakes r spotlights on the road to get u back on track <tspan x="100.59" y="22.8">.. but we throw stones at them</tspan><tspan x="14.16" y="45.6">- We believe in the power of Coffee .. and Italian food.</tspan><tspan x="84.83" y="91.2">- You could fnd that we say things </tspan><tspan x="2.68" y="114">that contradict w/ what we could&apos;ve said before .. now u </tspan><tspan x="91.35" y="136.8">know that we r moody as shhhit!</tspan><tspan x="16.53" y="159.6">- If u r looking for humor, leave &apos;cuz we earn livin&apos; by </tspan><tspan x="155.5" y="182.4">being sarcastic. </tspan><tspan x="55.96" y="205.2">- By following me, you agree to never take </tspan><tspan x="117.62" y="228">anything we say seriously </tspan></text><g class="cls-3"><path class="cls-4" d="M177.52,52.52,165,113.66h-.25L152.41,52.52h-26v86.61h16V70h.25l15.4,69.14H171.7L187.11,70h.24v69.14h16V52.52Z"/><path class="cls-4" d="M254.31,52.52H232.72l-22.93,86.61H228l4-18.31h23l4,18.31h18.2ZM235,106.5l8.37-38.94h.24L252,106.5Z"/><path class="cls-4" d="M324.79,52.52v59.32h-.24L303.44,52.52H283.3v86.61h16V78.48h.25l21.35,60.65H340.8V52.52Z"/><path class="cls-4" d="M353.78,52.52v86.61h17.47V52.52Z"/><path class="cls-4" d="M432.63,58.66v8.18H401.7V87.21h29.11v14.32H401.7v37.6H384.23V52.52H425Z"/><path class="cls-4" d="M457.86,124.82V101.53h16.51q-6-7.43-12.2-14.32h-4.31V82.53q-8.5-9-17.47-17.13v66.21c16.16.09,32.61.22,49.62-1.45v-5.34Zm-17.47,13v1.35h13l-6.28-.59C444.86,138.33,442.63,138.07,440.39,137.78Z"/></g><text class="cls-5" transform="translate(126.08 155.34)">THE SAMURAI NATION</text></g></g></svg>